<mxfile host="app.diagrams.net" modified="2024-03-07T15:17:30.494Z" agent="Mozilla/5.0 (Windows NT 10.0; Win64; x64) AppleWebKit/537.36 (KHTML, like Gecko) Chrome/122.0.0.0 Safari/537.36" etag="-Pwi0Mb8pIyex27iGjwE" version="24.0.2" type="github">
  <diagram id="C5RBs43oDa-KdzZeNtuy" name="Page-1">
    <mxGraphModel dx="880" dy="468" grid="1" gridSize="10" guides="1" tooltips="1" connect="1" arrows="1" fold="1" page="1" pageScale="1" pageWidth="827" pageHeight="1169" math="0" shadow="0">
      <root>
        <mxCell id="WIyWlLk6GJQsqaUBKTNV-0" />
        <mxCell id="WIyWlLk6GJQsqaUBKTNV-1" parent="WIyWlLk6GJQsqaUBKTNV-0" />
        <mxCell id="i0b4EtwNADjws_sT7QJc-0" value="Tipos de lenguaje de programación" style="rounded=0;whiteSpace=wrap;html=1;" vertex="1" parent="WIyWlLk6GJQsqaUBKTNV-1">
          <mxGeometry x="310" y="60" width="120" height="60" as="geometry" />
        </mxCell>
        <mxCell id="i0b4EtwNADjws_sT7QJc-2" value="" style="endArrow=classic;html=1;rounded=0;" edge="1" parent="WIyWlLk6GJQsqaUBKTNV-1" source="i0b4EtwNADjws_sT7QJc-0">
          <mxGeometry width="50" height="50" relative="1" as="geometry">
            <mxPoint x="370" y="170" as="sourcePoint" />
            <mxPoint x="370" y="190.71067811865476" as="targetPoint" />
          </mxGeometry>
        </mxCell>
        <mxCell id="i0b4EtwNADjws_sT7QJc-3" value="&lt;div&gt;**Lenguajes de bajo nivel**: Son aquellos que están más cerca del hardware, como el lenguaje ensamblador.&lt;/div&gt;&lt;div&gt;- **Lenguajes de alto nivel**: Son más fáciles de entender y escribir para los humanos. Algunos ejemplos son Python, Java, C++, etc.&lt;/div&gt;" style="rounded=0;whiteSpace=wrap;html=1;" vertex="1" parent="WIyWlLk6GJQsqaUBKTNV-1">
          <mxGeometry x="30" y="200" width="730" height="50" as="geometry" />
        </mxCell>
        <mxCell id="i0b4EtwNADjws_sT7QJc-4" value="" style="endArrow=classic;html=1;rounded=0;" edge="1" parent="WIyWlLk6GJQsqaUBKTNV-1" target="i0b4EtwNADjws_sT7QJc-5">
          <mxGeometry width="50" height="50" relative="1" as="geometry">
            <mxPoint x="80" y="250" as="sourcePoint" />
            <mxPoint x="80" y="330" as="targetPoint" />
          </mxGeometry>
        </mxCell>
        <mxCell id="i0b4EtwNADjws_sT7QJc-5" value="Ejemplos de Lenguajes de Programación&#xa;&#xa;&#xa;Aquí hay algunos ejemplos de lenguajes de programación:&#xa;&#xa;&#xa;1.Python: Es un lenguaje de alto nivel muy popular debido a la simplicidad y legibilidad de su código.&#xa;2. Java: es un lenguaje de programación orientado a objetos, concurrente y de propósito general diseñado para tener la menor cantidad de dependencias de implementación posible.&#xa;3. C++: es un lenguaje de programación de propósito general que proporciona un rendimiento eficiente y flexibilidad para trabajos de bajo nivel." style="rounded=0;whiteSpace=wrap;html=1;" vertex="1" parent="WIyWlLk6GJQsqaUBKTNV-1">
          <mxGeometry x="20" y="310" width="370" height="210" as="geometry" />
        </mxCell>
        <mxCell id="i0b4EtwNADjws_sT7QJc-6" value="" style="endArrow=classic;html=1;rounded=0;exitX=1;exitY=1;exitDx=0;exitDy=0;" edge="1" parent="WIyWlLk6GJQsqaUBKTNV-1" source="i0b4EtwNADjws_sT7QJc-3" target="i0b4EtwNADjws_sT7QJc-7">
          <mxGeometry width="50" height="50" relative="1" as="geometry">
            <mxPoint x="560" y="300" as="sourcePoint" />
            <mxPoint x="720" y="310" as="targetPoint" />
            <Array as="points">
              <mxPoint x="710" y="270" />
            </Array>
          </mxGeometry>
        </mxCell>
        <mxCell id="i0b4EtwNADjws_sT7QJc-7" value="Frameworks&#xa;&#xa;&#xa;Un framework es un conjunto de bibliotecas y herramientas que facilitan el desarrollo de software. Algunos ejemplos de marcos son Django, spring y React" style="rounded=0;whiteSpace=wrap;html=1;" vertex="1" parent="WIyWlLk6GJQsqaUBKTNV-1">
          <mxGeometry x="410" y="280" width="370" height="100" as="geometry" />
        </mxCell>
        <mxCell id="i0b4EtwNADjws_sT7QJc-9" value="" style="endArrow=classic;html=1;rounded=0;" edge="1" parent="WIyWlLk6GJQsqaUBKTNV-1" source="i0b4EtwNADjws_sT7QJc-7">
          <mxGeometry width="50" height="50" relative="1" as="geometry">
            <mxPoint x="595" y="430" as="sourcePoint" />
            <mxPoint x="595" y="450.71067811865476" as="targetPoint" />
          </mxGeometry>
        </mxCell>
        <mxCell id="i0b4EtwNADjws_sT7QJc-11" value="&lt;div&gt;Entornos de Desarrollo Integrados (IDEs) para Java&lt;/div&gt;&lt;div&gt;&lt;br&gt;&lt;/div&gt;&lt;div&gt;Una vez que elija un lenguaje de programación, como Java, es importante elegir el IDE adecuado para usar ese lenguaje. Aquí hay algunas sugerencias:&lt;/div&gt;" style="rounded=0;whiteSpace=wrap;html=1;" vertex="1" parent="WIyWlLk6GJQsqaUBKTNV-1">
          <mxGeometry x="420" y="460" width="370" height="80" as="geometry" />
        </mxCell>
        <mxCell id="i0b4EtwNADjws_sT7QJc-13" value="" style="endArrow=classic;html=1;rounded=0;" edge="1" parent="WIyWlLk6GJQsqaUBKTNV-1" source="i0b4EtwNADjws_sT7QJc-5">
          <mxGeometry width="50" height="50" relative="1" as="geometry">
            <mxPoint x="205" y="570" as="sourcePoint" />
            <mxPoint x="205" y="590.7106781186548" as="targetPoint" />
          </mxGeometry>
        </mxCell>
        <mxCell id="i0b4EtwNADjws_sT7QJc-14" value="&lt;div&gt;Estructuras de Control en Java&lt;/div&gt;&lt;div&gt;&lt;br&gt;&lt;/div&gt;&lt;div&gt;Las estructuras de control son bloques de programación que pueden cambiar el camino que tomamos a través de estas instrucciones. En Java, las estructuras de control se dividen en tres tipos que son las ramas de control, bucle y declaraciones de rama&lt;/div&gt;" style="rounded=0;whiteSpace=wrap;html=1;" vertex="1" parent="WIyWlLk6GJQsqaUBKTNV-1">
          <mxGeometry x="145" y="600" width="365" height="150" as="geometry" />
        </mxCell>
      </root>
    </mxGraphModel>
  </diagram>
</mxfile>
